<svg xmlns="http://www.w3.org/2000/svg" xmlns:xlink="http://www.w3.org/1999/xlink" version="1.1" class="marks" width="309" height="272" viewBox="0 0 309 272"><rect width="309" height="272" fill="white"/><g fill="none" stroke-miterlimit="10" transform="translate(54,5)"><g class="mark-group role-frame root" role="graphics-object" aria-roledescription="group mark container"><g transform="translate(0,0)"><path class="background" aria-hidden="true" d="M0.5,0.5h250v250h-250Z" stroke="#ddd"/><g><g class="mark-group role-axis" aria-hidden="true"><g transform="translate(0.5,250.5)"><path class="background" aria-hidden="true" d="M0,0h0v0h0Z" pointer-events="none"/><g><g class="mark-rule role-axis-grid" pointer-events="none"><line transform="translate(0,0)" x2="0" y2="-250" stroke="#ddd" stroke-width="1" opacity="1"/><line transform="translate(48,0)" x2="0" y2="-250" stroke="#ddd" stroke-width="1" opacity="1"/><line transform="translate(96,0)" x2="0" y2="-250" stroke="#ddd" stroke-width="1" opacity="1"/><line transform="translate(144,0)" x2="0" y2="-250" stroke="#ddd" stroke-width="1" opacity="1"/><line transform="translate(192,0)" x2="0" y2="-250" stroke="#ddd" stroke-width="1" opacity="1"/><line transform="translate(240,0)" x2="0" y2="-250" stroke="#ddd" stroke-width="1" opacity="1"/></g></g><path class="foreground" aria-hidden="true" d="" pointer-events="none" display="none"/></g></g><g class="mark-group role-axis" role="graphics-symbol" aria-roledescription="axis" aria-label="X-axis for a linear scale with values from 0 to 26"><g transform="translate(0.5,250.5)"><path class="background" aria-hidden="true" d="M0,0h0v0h0Z" pointer-events="none"/><g><g class="mark-text role-axis-label" pointer-events="none"><text text-anchor="start" transform="translate(0,10)" font-family="sans-serif" font-size="10px" fill="#000" opacity="1">0</text><text text-anchor="middle" transform="translate(48.07692307692308,10)" font-family="sans-serif" font-size="10px" fill="#000" opacity="1">5</text><text text-anchor="middle" transform="translate(96.15384615384616,10)" font-family="sans-serif" font-size="10px" fill="#000" opacity="1">10</text><text text-anchor="middle" transform="translate(144.23076923076923,10)" font-family="sans-serif" font-size="10px" fill="#000" opacity="1">15</text><text text-anchor="middle" transform="translate(192.30769230769232,10)" font-family="sans-serif" font-size="10px" fill="#000" opacity="1">20</text><text text-anchor="middle" transform="translate(240.3846153846154,10)" font-family="sans-serif" font-size="10px" fill="#000" opacity="1">25</text></g><g class="mark-rule role-axis-domain" pointer-events="none"><line transform="translate(0,0)" x2="250" y2="0" stroke="#888" stroke-width="1" opacity="1"/></g></g><path class="foreground" aria-hidden="true" d="" pointer-events="none" display="none"/></g></g><g class="mark-group role-axis" role="graphics-symbol" aria-roledescription="axis" aria-label="Y-axis titled 'Area' for a discrete scale with 5 values: Central, East, North, South, West"><g transform="translate(0.5,0.5)"><path class="background" aria-hidden="true" d="M0,0h0v0h0Z" pointer-events="none"/><g><g class="mark-rule role-axis-tick" pointer-events="none"><line transform="translate(0,24)" x2="-5" y2="0" stroke="#888" stroke-width="1" opacity="1"/><line transform="translate(0,74)" x2="-5" y2="0" stroke="#888" stroke-width="1" opacity="1"/><line transform="translate(0,124)" x2="-5" y2="0" stroke="#888" stroke-width="1" opacity="1"/><line transform="translate(0,175)" x2="-5" y2="0" stroke="#888" stroke-width="1" opacity="1"/><line transform="translate(0,225)" x2="-5" y2="0" stroke="#888" stroke-width="1" opacity="1"/></g><g class="mark-text role-axis-label" pointer-events="none"><text text-anchor="end" transform="translate(-7,24.499999999999986) rotate(315) translate(0,3)" font-family="sans-serif" font-size="10px" fill="#000" opacity="1">Central</text><text text-anchor="end" transform="translate(-7,74.49999999999999) rotate(315) translate(0,3)" font-family="sans-serif" font-size="10px" fill="#000" opacity="1">East</text><text text-anchor="end" transform="translate(-7,124.49999999999999) rotate(315) translate(0,3)" font-family="sans-serif" font-size="10px" fill="#000" opacity="1">North</text><text text-anchor="end" transform="translate(-7,174.5) rotate(315) translate(0,3)" font-family="sans-serif" font-size="10px" fill="#000" opacity="1">South</text><text text-anchor="end" transform="translate(-7,224.5) rotate(315) translate(0,3)" font-family="sans-serif" font-size="10px" fill="#000" opacity="1">West</text></g><g class="mark-rule role-axis-domain" pointer-events="none"><line transform="translate(0,0)" x2="0" y2="250" stroke="#888" stroke-width="1" opacity="1"/></g><g class="mark-text role-axis-title" pointer-events="none"><text text-anchor="middle" transform="translate(-37.330060123674855,125) rotate(-90) translate(0,-2)" font-family="sans-serif" font-size="11px" font-weight="bold" fill="#000" opacity="1">Area</text></g></g><path class="foreground" aria-hidden="true" d="" pointer-events="none" display="none"/></g></g><g class="mark-rect role-mark layer_0_marks" role="graphics-object" aria-roledescription="rect mark container"><path aria-label="Area: North; Sales: 5" role="graphics-symbol" aria-roledescription="bar" d="M0,114.99999999999999h48.07692307692308v10h-48.07692307692308Z" fill="skyblue"/><path aria-label="Area: East; Sales: 25" role="graphics-symbol" aria-roledescription="bar" d="M0,64.99999999999999h240.3846153846154v10h-240.3846153846154Z" fill="skyblue"/><path aria-label="Area: South; Sales: 20" role="graphics-symbol" aria-roledescription="bar" d="M0,165h192.30769230769232v10h-192.30769230769232Z" fill="skyblue"/><path aria-label="Area: West; Sales: 10" role="graphics-symbol" aria-roledescription="bar" d="M0,215h96.15384615384616v10h-96.15384615384616Z" fill="skyblue"/><path aria-label="Area: Central; Sales: 15" role="graphics-symbol" aria-roledescription="bar" d="M0,14.999999999999986h144.23076923076923v10h-144.23076923076923Z" fill="skyblue"/></g><g class="mark-rect role-mark layer_1_marks" role="graphics-object" aria-roledescription="rect mark container"><path aria-label="Area: North; Profit: 2" role="graphics-symbol" aria-roledescription="bar" d="M0,125h19.230769230769234v10h-19.230769230769234Z" fill="orange"/><path aria-label="Area: East; Profit: 8" role="graphics-symbol" aria-roledescription="bar" d="M0,74.99999999999999h76.92307692307693v10h-76.92307692307693Z" fill="orange"/><path aria-label="Area: South; Profit: 6" role="graphics-symbol" aria-roledescription="bar" d="M0,175h57.69230769230769v10h-57.69230769230769Z" fill="orange"/><path aria-label="Area: West; Profit: 5" role="graphics-symbol" aria-roledescription="bar" d="M0,225h48.07692307692308v10h-48.07692307692308Z" fill="orange"/><path aria-label="Area: Central; Profit: 6" role="graphics-symbol" aria-roledescription="bar" d="M0,24.999999999999986h57.69230769230769v10h-57.69230769230769Z" fill="orange"/></g></g><path class="foreground" aria-hidden="true" d="" display="none"/></g></g></g></svg>