<svg xmlns="http://www.w3.org/2000/svg" xmlns:xlink="http://www.w3.org/1999/xlink" version="1.1" class="marks" width="294" height="315" viewBox="0 0 294 315"><rect width="294" height="315" fill="white"/><g fill="none" stroke-miterlimit="10" transform="translate(39,5)"><g class="mark-group role-frame root" role="graphics-object" aria-roledescription="group mark container"><g transform="translate(0,0)"><path class="background" aria-hidden="true" d="M0.5,0.5h250v250h-250Z" stroke="#ddd"/><g><g class="mark-group role-axis" aria-hidden="true"><g transform="translate(0.5,0.5)"><path class="background" aria-hidden="true" d="M0,0h0v0h0Z" pointer-events="none"/><g><g class="mark-rule role-axis-grid" pointer-events="none"><line transform="translate(0,250)" x2="250" y2="0" stroke="#ddd" stroke-width="1" opacity="1"/><line transform="translate(0,202)" x2="250" y2="0" stroke="#ddd" stroke-width="1" opacity="1"/><line transform="translate(0,154)" x2="250" y2="0" stroke="#ddd" stroke-width="1" opacity="1"/><line transform="translate(0,106)" x2="250" y2="0" stroke="#ddd" stroke-width="1" opacity="1"/><line transform="translate(0,58)" x2="250" y2="0" stroke="#ddd" stroke-width="1" opacity="1"/><line transform="translate(0,10)" x2="250" y2="0" stroke="#ddd" stroke-width="1" opacity="1"/></g></g><path class="foreground" aria-hidden="true" d="" pointer-events="none" display="none"/></g></g><g class="mark-group role-axis" role="graphics-symbol" aria-roledescription="axis" aria-label="X-axis titled 'Area' for a discrete scale with 5 values: Central, East, North, South, West"><g transform="translate(0.5,250.5)"><path class="background" aria-hidden="true" d="M0,0h0v0h0Z" pointer-events="none"/><g><g class="mark-rule role-axis-tick" pointer-events="none"><line transform="translate(25,0)" x2="0" y2="5" stroke="#888" stroke-width="1" opacity="1"/><line transform="translate(75,0)" x2="0" y2="5" stroke="#888" stroke-width="1" opacity="1"/><line transform="translate(125,0)" x2="0" y2="5" stroke="#888" stroke-width="1" opacity="1"/><line transform="translate(175,0)" x2="0" y2="5" stroke="#888" stroke-width="1" opacity="1"/><line transform="translate(225,0)" x2="0" y2="5" stroke="#888" stroke-width="1" opacity="1"/></g><g class="mark-text role-axis-label" pointer-events="none"><text text-anchor="end" transform="translate(25,7) rotate(270) translate(0,3)" font-family="sans-serif" font-size="10px" fill="#000" opacity="1">Central</text><text text-anchor="end" transform="translate(75,7) rotate(270) translate(0,3)" font-family="sans-serif" font-size="10px" fill="#000" opacity="1">East</text><text text-anchor="end" transform="translate(125,7) rotate(270) translate(0,3)" font-family="sans-serif" font-size="10px" fill="#000" opacity="1">North</text><text text-anchor="end" transform="translate(175,7) rotate(270) translate(0,3)" font-family="sans-serif" font-size="10px" fill="#000" opacity="1">South</text><text text-anchor="end" transform="translate(225,7) rotate(270) translate(0,3)" font-family="sans-serif" font-size="10px" fill="#000" opacity="1">West</text></g><g class="mark-rule role-axis-domain" pointer-events="none"><line transform="translate(0,0)" x2="250" y2="0" stroke="#888" stroke-width="1" opacity="1"/></g><g class="mark-text role-axis-title" pointer-events="none"><text text-anchor="middle" transform="translate(125,52.236328125)" font-family="sans-serif" font-size="11px" font-weight="bold" fill="#000" opacity="1">Area</text></g></g><path class="foreground" aria-hidden="true" d="" pointer-events="none" display="none"/></g></g><g class="mark-group role-axis" role="graphics-symbol" aria-roledescription="axis" aria-label="Y-axis titled 'Sales, Profit' for a linear scale with values from 0 to 26"><g transform="translate(0.5,0.5)"><path class="background" aria-hidden="true" d="M0,0h0v0h0Z" pointer-events="none"/><g><g class="mark-rule role-axis-tick" pointer-events="none"><line transform="translate(0,250)" x2="-5" y2="0" stroke="#888" stroke-width="1" opacity="1"/><line transform="translate(0,202)" x2="-5" y2="0" stroke="#888" stroke-width="1" opacity="1"/><line transform="translate(0,154)" x2="-5" y2="0" stroke="#888" stroke-width="1" opacity="1"/><line transform="translate(0,106)" x2="-5" y2="0" stroke="#888" stroke-width="1" opacity="1"/><line transform="translate(0,58)" x2="-5" y2="0" stroke="#888" stroke-width="1" opacity="1"/><line transform="translate(0,10)" x2="-5" y2="0" stroke="#888" stroke-width="1" opacity="1"/></g><g class="mark-text role-axis-label" pointer-events="none"><text text-anchor="end" transform="translate(-7,253)" font-family="sans-serif" font-size="10px" fill="#000" opacity="1">0</text><text text-anchor="end" transform="translate(-7,204.92307692307693)" font-family="sans-serif" font-size="10px" fill="#000" opacity="1">5</text><text text-anchor="end" transform="translate(-7,156.84615384615387)" font-family="sans-serif" font-size="10px" fill="#000" opacity="1">10</text><text text-anchor="end" transform="translate(-7,108.76923076923079)" font-family="sans-serif" font-size="10px" fill="#000" opacity="1">15</text><text text-anchor="end" transform="translate(-7,60.69230769230768)" font-family="sans-serif" font-size="10px" fill="#000" opacity="1">20</text><text text-anchor="end" transform="translate(-7,12.61538461538461)" font-family="sans-serif" font-size="10px" fill="#000" opacity="1">25</text></g><g class="mark-rule role-axis-domain" pointer-events="none"><line transform="translate(0,250)" x2="0" y2="-250" stroke="#888" stroke-width="1" opacity="1"/></g><g class="mark-text role-axis-title" pointer-events="none"><text text-anchor="middle" transform="translate(-22.123046875,125) rotate(-90) translate(0,-2)" font-family="sans-serif" font-size="11px" font-weight="bold" fill="#000" opacity="1">Sales, Profit</text></g></g><path class="foreground" aria-hidden="true" d="" pointer-events="none" display="none"/></g></g><g class="mark-line role-mark layer_0_layer_0_marks" role="graphics-object" aria-roledescription="line mark container"><path aria-label="Area: Central; Sales: 15" role="graphics-symbol" aria-roledescription="line mark" d="M25,105.76923076923079L75,9.61538461538461L125,201.92307692307693L175,57.69230769230768L225,153.84615384615387" stroke="skyblue" stroke-width="2"/></g><g class="mark-symbol role-mark layer_0_layer_1_marks" role="graphics-object" aria-roledescription="symbol mark container"><path aria-label="Area: North; Sales: 5" role="graphics-symbol" aria-roledescription="point" transform="translate(125,201.92307692307693)" d="M4.183300132670378,0A4.183300132670378,4.183300132670378,0,1,1,-4.183300132670378,0A4.183300132670378,4.183300132670378,0,1,1,4.183300132670378,0" fill="skyblue" stroke-width="2" opacity="1"/><path aria-label="Area: East; Sales: 25" role="graphics-symbol" aria-roledescription="point" transform="translate(75,9.61538461538461)" d="M4.183300132670378,0A4.183300132670378,4.183300132670378,0,1,1,-4.183300132670378,0A4.183300132670378,4.183300132670378,0,1,1,4.183300132670378,0" fill="skyblue" stroke-width="2" opacity="1"/><path aria-label="Area: South; Sales: 20" role="graphics-symbol" aria-roledescription="point" transform="translate(175,57.69230769230768)" d="M4.183300132670378,0A4.183300132670378,4.183300132670378,0,1,1,-4.183300132670378,0A4.183300132670378,4.183300132670378,0,1,1,4.183300132670378,0" fill="skyblue" stroke-width="2" opacity="1"/><path aria-label="Area: West; Sales: 10" role="graphics-symbol" aria-roledescription="point" transform="translate(225,153.84615384615387)" d="M4.183300132670378,0A4.183300132670378,4.183300132670378,0,1,1,-4.183300132670378,0A4.183300132670378,4.183300132670378,0,1,1,4.183300132670378,0" fill="skyblue" stroke-width="2" opacity="1"/><path aria-label="Area: Central; Sales: 15" role="graphics-symbol" aria-roledescription="point" transform="translate(25,105.76923076923079)" d="M4.183300132670378,0A4.183300132670378,4.183300132670378,0,1,1,-4.183300132670378,0A4.183300132670378,4.183300132670378,0,1,1,4.183300132670378,0" fill="skyblue" stroke-width="2" opacity="1"/></g><g class="mark-line role-mark layer_1_layer_0_marks" role="graphics-object" aria-roledescription="line mark container"><path aria-label="Area: Central; Profit: 6" role="graphics-symbol" aria-roledescription="line mark" d="M25,192.3076923076923L75,173.07692307692307L125,230.76923076923077L175,192.3076923076923L225,201.92307692307693" stroke="orange" stroke-width="2"/></g><g class="mark-symbol role-mark layer_1_layer_1_marks" role="graphics-object" aria-roledescription="symbol mark container"><path aria-label="Area: North; Profit: 2" role="graphics-symbol" aria-roledescription="point" transform="translate(125,230.76923076923077)" d="M4.183300132670378,0A4.183300132670378,4.183300132670378,0,1,1,-4.183300132670378,0A4.183300132670378,4.183300132670378,0,1,1,4.183300132670378,0" fill="orange" stroke-width="2" opacity="1"/><path aria-label="Area: East; Profit: 8" role="graphics-symbol" aria-roledescription="point" transform="translate(75,173.07692307692307)" d="M4.183300132670378,0A4.183300132670378,4.183300132670378,0,1,1,-4.183300132670378,0A4.183300132670378,4.183300132670378,0,1,1,4.183300132670378,0" fill="orange" stroke-width="2" opacity="1"/><path aria-label="Area: South; Profit: 6" role="graphics-symbol" aria-roledescription="point" transform="translate(175,192.3076923076923)" d="M4.183300132670378,0A4.183300132670378,4.183300132670378,0,1,1,-4.183300132670378,0A4.183300132670378,4.183300132670378,0,1,1,4.183300132670378,0" fill="orange" stroke-width="2" opacity="1"/><path aria-label="Area: West; Profit: 5" role="graphics-symbol" aria-roledescription="point" transform="translate(225,201.92307692307693)" d="M4.183300132670378,0A4.183300132670378,4.183300132670378,0,1,1,-4.183300132670378,0A4.183300132670378,4.183300132670378,0,1,1,4.183300132670378,0" fill="orange" stroke-width="2" opacity="1"/><path aria-label="Area: Central; Profit: 6" role="graphics-symbol" aria-roledescription="point" transform="translate(25,192.3076923076923)" d="M4.183300132670378,0A4.183300132670378,4.183300132670378,0,1,1,-4.183300132670378,0A4.183300132670378,4.183300132670378,0,1,1,4.183300132670378,0" fill="orange" stroke-width="2" opacity="1"/></g></g><path class="foreground" aria-hidden="true" d="" display="none"/></g></g></g></svg>